<svg id="Componente_229_1" data-name="Componente 229 – 1" xmlns="http://www.w3.org/2000/svg" width="24" height="24" viewBox="0 0 24 24">
  <path id="Trazado_2548" data-name="Trazado 2548" d="M0,0H24V24H0Z" fill="none"/>
  <path id="Trazado_2549" data-name="Trazado 2549" d="M8,13V4.5a1.5,1.5,0,1,1,3,0V12" fill="none" stroke="#000" stroke-linecap="round" stroke-linejoin="round" stroke-width="1"/>
  <path id="Trazado_2550" data-name="Trazado 2550" d="M11,11.5v-2a1.5,1.5,0,0,1,3,0V12" fill="none" stroke="#000" stroke-linecap="round" stroke-linejoin="round" stroke-width="1"/>
  <path id="Trazado_2551" data-name="Trazado 2551" d="M14,10.5a1.5,1.5,0,1,1,3,0V12" fill="none" stroke="#000" stroke-linecap="round" stroke-linejoin="round" stroke-width="1"/>
  <path id="Trazado_2552" data-name="Trazado 2552" d="M17,11.5a1.5,1.5,0,0,1,3,0V16a6,6,0,0,1-6,6H12.208A6,6,0,0,1,7.2,19.3L7,19q-.468-.719-3.286-5.728A1.5,1.5,0,0,1,4.25,11.25a1.867,1.867,0,0,1,2.28.28L8,13" fill="none" stroke="#000" stroke-linecap="round" stroke-linejoin="round" stroke-width="1"/>
  <path id="Trazado_2553" data-name="Trazado 2553" d="M5,3,4,2" fill="none" stroke="#000" stroke-linecap="round" stroke-linejoin="round" stroke-width="1"/>
  <path id="Trazado_2554" data-name="Trazado 2554" d="M4,7H3" fill="none" stroke="#000" stroke-linecap="round" stroke-linejoin="round" stroke-width="1"/>
  <path id="Trazado_2555" data-name="Trazado 2555" d="M14,3l1-1" fill="none" stroke="#000" stroke-linecap="round" stroke-linejoin="round" stroke-width="1"/>
  <path id="Trazado_2556" data-name="Trazado 2556" d="M15,6h1" fill="none" stroke="#000" stroke-linecap="round" stroke-linejoin="round" stroke-width="1"/>
</svg>
