<svg id="Icon_2_" data-name="Icon (2)" xmlns="http://www.w3.org/2000/svg" width="9.221" height="16.304" viewBox="0 0 9.221 16.304">
  <path id="Icon_2_2" data-name="Icon (2)" d="M11.012,15.772c-1.866,0-2.6-.833-2.7-1.9H6.32a3.8,3.8,0,0,0,3.333,3.469V19.3h2.717V17.357c1.766-.335,3.17-1.359,3.17-3.216,0-2.572-2.2-3.451-4.257-3.986S8.567,9.069,8.567,8.208c0-.987.915-1.676,2.446-1.676,1.612,0,2.21.77,2.264,1.9h2a3.611,3.611,0,0,0-2.908-3.451V3H9.654V4.957c-1.757.38-3.17,1.522-3.17,3.27,0,2.092,1.73,3.134,4.257,3.741,2.264.543,2.717,1.341,2.717,2.183C13.458,14.775,13.014,15.772,11.012,15.772Z" transform="translate(-6.32 -3)" fill="#000"/>
</svg>
