<svg id="Icon_material-fingerprint" data-name="Icon material-fingerprint" xmlns="http://www.w3.org/2000/svg" width="24.601" height="26.939" viewBox="0 0 24.601 26.939">
  <path id="Icon_material-fingerprint-2" data-name="Icon material-fingerprint" d="M24.745,6.327a.642.642,0,0,1-.314-.081,15.826,15.826,0,0,0-7.614-1.9A15.824,15.824,0,0,0,9.2,6.246a.7.7,0,0,1-.93-.269.677.677,0,0,1,.273-.916,17.622,17.622,0,0,1,16.514-.013.655.655,0,0,1,.287.9A.671.671,0,0,1,24.745,6.327ZM5.183,13.4a.72.72,0,0,1-.4-.121.665.665,0,0,1-.164-.943,14.073,14.073,0,0,1,5.126-4.4,15.99,15.99,0,0,1,14.094-.013,14.129,14.129,0,0,1,5.126,4.378.667.667,0,0,1-.164.943.688.688,0,0,1-.957-.162,12.78,12.78,0,0,0-4.634-3.96,14.6,14.6,0,0,0-12.85.013,12.914,12.914,0,0,0-4.648,3.987.6.6,0,0,1-.533.283Zm8.544,16.258a.646.646,0,0,1-.478-.2A13.641,13.641,0,0,1,10.5,25.9a11.817,11.817,0,0,1-1.435-5.846,7.521,7.521,0,0,1,7.737-7.26,7.521,7.521,0,0,1,7.737,7.26.684.684,0,0,1-1.367,0,6.162,6.162,0,0,0-6.37-5.913,6.162,6.162,0,0,0-6.37,5.913A10.429,10.429,0,0,0,11.7,25.238a12.774,12.774,0,0,0,2.529,3.26.684.684,0,0,1,0,.956A.756.756,0,0,1,13.727,29.656Zm9.8-2.492a7.442,7.442,0,0,1-4.238-1.2,7.145,7.145,0,0,1-3.253-5.913.684.684,0,0,1,1.367,0,5.772,5.772,0,0,0,2.652,4.8,6.06,6.06,0,0,0,3.472.956,9.165,9.165,0,0,0,1.422-.135.681.681,0,0,1,.793.552.672.672,0,0,1-.56.781,9.47,9.47,0,0,1-1.654.162Zm-2.748,2.775a.811.811,0,0,1-.178-.027,10.707,10.707,0,0,1-5.085-2.829,9.756,9.756,0,0,1-2.966-7.031,4.1,4.1,0,0,1,4.21-3.96,4.1,4.1,0,0,1,4.21,3.96,2.854,2.854,0,0,0,5.687,0c0-5.078-4.443-9.2-9.911-9.2a10,10,0,0,0-9.036,5.428,8.558,8.558,0,0,0-.807,3.772,13.21,13.21,0,0,0,.916,4.863.655.655,0,0,1-.4.862.681.681,0,0,1-.875-.391,14.811,14.811,0,0,1-1-5.334,9.994,9.994,0,0,1,.93-4.364,11.364,11.364,0,0,1,10.266-6.2c6.22,0,11.278,4.728,11.278,10.547a4.218,4.218,0,0,1-8.421,0,2.736,2.736,0,0,0-2.843-2.613,2.736,2.736,0,0,0-2.843,2.613,8.42,8.42,0,0,0,2.556,6.075,9.331,9.331,0,0,0,4.47,2.492.679.679,0,0,1-.164,1.333Z" transform="translate(-4.495 -3)" fill="#000"/>
</svg>
