<svg id="Componente_320_1" data-name="Componente 320 – 1" xmlns="http://www.w3.org/2000/svg" width="48.028" height="48.028" viewBox="0 0 48.028 48.028">
  <path id="Trazado_2596" data-name="Trazado 2596" d="M0,0H48.028V48.028H0Z" fill="none"/>
  <path id="Trazado_2597" data-name="Trazado 2597" d="M4,12V8A4,4,0,0,1,8,4h4" transform="translate(4.005 4.005)" fill="none" stroke="#000" stroke-linecap="round" stroke-linejoin="round" stroke-width="2"/>
  <path id="Trazado_2598" data-name="Trazado 2598" d="M4,16v4a4,4,0,0,0,4,4h4" transform="translate(4.005 16.019)" fill="none" stroke="#000" stroke-linecap="round" stroke-linejoin="round" stroke-width="2"/>
  <path id="Trazado_2599" data-name="Trazado 2599" d="M16,4h4a4,4,0,0,1,4,4v4" transform="translate(16.019 4.005)" fill="none" stroke="#000" stroke-linecap="round" stroke-linejoin="round" stroke-width="2"/>
  <path id="Trazado_2600" data-name="Trazado 2600" d="M16,24h4a4,4,0,0,0,4-4V16" transform="translate(16.019 16.019)" fill="none" stroke="#000" stroke-linecap="round" stroke-linejoin="round" stroke-width="2"/>
  <path id="Trazado_2601" data-name="Trazado 2601" d="M9,10h.02" transform="translate(9.011 10.012)" fill="none" stroke="#000" stroke-linecap="round" stroke-linejoin="round" stroke-width="2"/>
  <path id="Trazado_2602" data-name="Trazado 2602" d="M15,10h.02" transform="translate(15.018 10.012)" fill="none" stroke="#000" stroke-linecap="round" stroke-linejoin="round" stroke-width="2"/>
  <path id="Trazado_2603" data-name="Trazado 2603" d="M9.5,16.1a7,7,0,0,1,10.006,0" transform="translate(9.511 14.016)" fill="none" stroke="#000" stroke-linecap="round" stroke-linejoin="round" stroke-width="2"/>
</svg>
