<svg id="Componente_216_1" data-name="Componente 216 – 1" xmlns="http://www.w3.org/2000/svg" width="19.175" height="19.175" viewBox="0 0 19.175 19.175">
  <path id="Trazado_2936" data-name="Trazado 2936" d="M0,0H19.175V19.175H0Z" fill="none"/>
  <path id="Trazado_2937" data-name="Trazado 2937" d="M8.794,4.6a1.6,1.6,0,1,1,3.2,0,5.593,5.593,0,0,1,3.2,4.794v2.4a3.2,3.2,0,0,0,1.6,2.4H4a3.2,3.2,0,0,0,1.6-2.4v-2.4A5.593,5.593,0,0,1,8.794,4.6" transform="translate(-0.804 -0.603)" fill="none" stroke="#000" stroke-linecap="round" stroke-linejoin="round" stroke-width="1"/>
  <path id="Trazado_2938" data-name="Trazado 2938" d="M9,17v.8a2.4,2.4,0,1,0,4.794,0V17" transform="translate(-1.809 -3.417)" fill="none" stroke="#000" stroke-linecap="round" stroke-linejoin="round" stroke-width="1"/>
  <path id="Trazado_2939" data-name="Trazado 2939" d="M20.438,5.978A8.829,8.829,0,0,0,18.206,3" transform="translate(-3.66 -0.603)" fill="none" stroke="#000" stroke-linecap="round" stroke-linejoin="round" stroke-width="1"/>
  <path id="Trazado_2940" data-name="Trazado 2940" d="M3,5.978A8.829,8.829,0,0,1,5.231,3" transform="translate(-0.603 -0.603)" fill="none" stroke="#000" stroke-linecap="round" stroke-linejoin="round" stroke-width="1"/>
</svg>
