<svg id="Icon" xmlns="http://www.w3.org/2000/svg" width="18.116" height="18.116" viewBox="0 0 18.116 18.116">
  <path id="Icon-2" data-name="Icon" d="M11.058,2a9.058,9.058,0,1,0,9.058,9.058A9.061,9.061,0,0,0,11.058,2Zm6.757,6.449L15.3,9.491a4.513,4.513,0,0,0-2.672-2.663L13.667,4.31A7.212,7.212,0,0,1,17.815,8.449Zm-6.757,5.326a2.717,2.717,0,1,1,2.717-2.717A2.714,2.714,0,0,1,11.058,13.775ZM8.458,4.3l1.06,2.518a4.529,4.529,0,0,0-2.7,2.69L4.3,8.458A7.232,7.232,0,0,1,8.458,4.3ZM4.3,13.658l2.518-1.042A4.5,4.5,0,0,0,9.509,15.3l-1.06,2.518A7.243,7.243,0,0,1,4.3,13.658Zm9.366,4.158L12.625,15.3a4.509,4.509,0,0,0,2.672-2.69l2.518,1.06A7.253,7.253,0,0,1,13.667,17.815Z" transform="translate(-2 -2)" fill="#000"/>
</svg>
