<svg id="Icon_1_" data-name="Icon (1)" xmlns="http://www.w3.org/2000/svg" width="18.27" height="17.962" viewBox="0 0 18.27 17.962">
  <path id="Trazado_2319" data-name="Trazado 2319" d="M4.359,10.717A1.359,1.359,0,1,0,3,9.359,1.359,1.359,0,0,0,4.359,10.717Z" transform="translate(-2.094 -2.719)" fill="#000"/>
  <path id="Trazado_2320" data-name="Trazado 2320" d="M20.27,8.51a6.341,6.341,0,1,0-7.4,6.241V18.32H5.623V15.6h.906V11.98a.908.908,0,0,0-.906-.906H2.906A.908.908,0,0,0,2,11.98V15.6h.906v4.529H17.4V18.32H14.681V14.806A6.34,6.34,0,0,0,20.27,8.51Zm-6.341,4.529A4.529,4.529,0,1,1,18.458,8.51,4.531,4.531,0,0,1,13.929,13.039Z" transform="translate(-2 -2.17)" fill="#000"/>
</svg>
