<svg id="Componente_227_1" data-name="Componente 227 – 1" xmlns="http://www.w3.org/2000/svg" width="24" height="24" viewBox="0 0 24 24">
  <path id="Trazado_2959" data-name="Trazado 2959" d="M0,0H24V24H0Z" fill="none"/>
  <path id="Trazado_2960" data-name="Trazado 2960" d="M3,21l1.65-3.8a9,9,0,1,1,3.4,2.9L3,21" fill="none" stroke="#000" stroke-linecap="round" stroke-linejoin="round" stroke-width="1.5"/>
  <path id="Trazado_2961" data-name="Trazado 2961" d="M9,10a.5.5,0,0,0,1,0V9A.5.5,0,0,0,9,9v1a5,5,0,0,0,5,5h1a.5.5,0,0,0,0-1H14a.5.5,0,0,0,0,1" fill="none" stroke="#000" stroke-linecap="round" stroke-linejoin="round" stroke-width="1.5"/>
</svg>
